# xmcd
#
# Track frame offsets: 
#        150
#        14472
#        29080
#        49322
#        65752
#        78354
#        90175
#        107172
#        119222
#        128454
#        138470
#        149515
#        161284
#        172612
#        186930
#        196377
#        210640
#        216184
#        226827
#        238087
#        250462
#        264765
#        275265
#        288650
#        303830
#        318957
#
# Disc length: 4435 seconds
#
# Revision: 4
# Processed by: cddbd v1.5.2PL0 Copyright (c) Steve Scherf et al.
# Submitted via: ExactAudioCopy v1.0b1
#
DISCID=7911511a
DTITLE=Josh White - Free And Equal Blues
DYEAR=1998
DGENRE=Blues
TTITLE0=One Meat Ball (mono)
TTITLE1=In My Time Of Dying (mono)
TTITLE2=Free And Equal Blues (mono)
TTITLE3=Number 12 Train (mono)
TTITLE4=Jim Crow (mono)
TTITLE5=Landlord (mono)
TTITLE6=Betty And Dupree (mono)
TTITLE7=Trouble (mono)
TTITLE8=Beloved Comrade (mono)
TTITLE9=Hold On (mono)
TTITLE10=Jelly Jelly (mono)
TTITLE11=When I Lay Down (mono)
TTITLE12=The House I Live In (mono)
TTITLE13=Fuhrer (mono)
TTITLE14=Minute Man (mono)
TTITLE15=Take A Gal Like You (mono)
TTITLE16=Whatcha Gonna Do (mono)
TTITLE17=Don't Lie Buddy (mono)
TTITLE18=Motherless Child (mono)
TTITLE19=No More Blues (No More Bread Lines) (mono)
TTITLE20=Meam Mistreatin' Woman (mono)
TTITLE21=Freedom Road (mono)
TTITLE22=Miss Otis Regrets (mono)
TTITLE23=Careless Love (mono)
TTITLE24=T.B. Blues (mono)
TTITLE25=Outskirts Of Town (mono)
EXTD=
EXTT0=
EXTT1=
EXTT2=
EXTT3=
EXTT4=
EXTT5=
EXTT6=
EXTT7=
EXTT8=
EXTT9=
EXTT10=
EXTT11=
EXTT12=
EXTT13=
EXTT14=
EXTT15=
EXTT16=
EXTT17=
EXTT18=
EXTT19=
EXTT20=
EXTT21=
EXTT22=
EXTT23=
EXTT24=
EXTT25=
PLAYORDER=
